<svg width="24" height="24" viewBox="0 0 24 24" fill="none" xmlns="http://www.w3.org/2000/svg">
<rect x="0.75" y="0.75" width="22.5" height="22.5" rx="5.25" fill="white" fill-opacity="0.1"/>
<rect x="0.75" y="0.75" width="22.5" height="22.5" rx="5.25" stroke="#E8E8E8" stroke-width="1.5"/>
<path d="M14.6667 16.6667H18.6667" stroke="#62605F" stroke-width="1.5" stroke-linecap="round" stroke-linejoin="round"/>
<path d="M14.6667 5.33333V8" stroke="#62605F" stroke-width="1.5" stroke-linecap="round" stroke-linejoin="round"/>
<path d="M16.6667 14.6667V18.6667" stroke="#62605F" stroke-width="1.5" stroke-linecap="round" stroke-linejoin="round"/>
<path d="M18 12.3987V8C18 7.64638 17.8595 7.30724 17.6095 7.05719C17.3594 6.80714 17.0203 6.66667 16.6667 6.66667H7.33333C6.97971 6.66667 6.64057 6.80714 6.39052 7.05719C6.14048 7.30724 6 7.64638 6 8V17.3333C6 17.687 6.14048 18.0261 6.39052 18.2761C6.64057 18.5262 6.97971 18.6667 7.33333 18.6667H13" stroke="#62605F" stroke-width="1.5" stroke-linecap="round" stroke-linejoin="round"/>
<path d="M6 10.6667H18" stroke="#62605F" stroke-width="1.5" stroke-linecap="round" stroke-linejoin="round"/>
<path d="M9.33325 5.33333V8" stroke="#62605F" stroke-width="1.5" stroke-linecap="round" stroke-linejoin="round"/>
</svg>
