<svg width="32" height="32" viewBox="0 0 32 32" fill="none" xmlns="http://www.w3.org/2000/svg">
<path d="M16.0002 17.3333V2.66663L26.6669 7.99996L16.0002 13.3333" stroke="#F55B1E" stroke-width="1.5" stroke-linecap="round" stroke-linejoin="round"/>
<path d="M27.4147 13.6294C28.1243 15.8162 28.1906 18.1609 27.606 20.3844C27.0213 22.6079 25.8102 24.6166 24.1168 26.1716C22.4234 27.7266 20.3189 28.7624 18.0537 29.1558C15.7885 29.5492 13.458 29.2836 11.3395 28.3906C9.22091 27.4976 7.40347 26.0148 6.10338 24.1186C4.80329 22.2224 4.07527 19.9927 4.00595 17.6946C3.93662 15.3966 4.52891 13.127 5.71233 11.1559C6.89576 9.18479 8.62051 7.59513 10.6814 6.57605" stroke="#F55B1E" stroke-width="1.5" stroke-linecap="round" stroke-linejoin="round"/>
<path d="M10.6695 13.3292C10.0014 14.2186 9.56643 15.261 9.40425 16.3615C9.24207 17.462 9.35783 18.5855 9.74099 19.6298C10.1241 20.6741 10.7625 21.6059 11.598 22.3404C12.4334 23.0748 13.4393 23.5886 14.5241 23.8348C15.6089 24.081 16.738 24.0518 17.8087 23.75C18.8793 23.4482 19.8574 22.8832 20.6538 22.1067C21.4502 21.3301 22.0397 20.3666 22.3685 19.3039C22.6973 18.2413 22.7549 17.1132 22.5362 16.0226" stroke="#F55B1E" stroke-width="1.5" stroke-linecap="round" stroke-linejoin="round"/>
</svg>
