<svg width="64" height="64" viewBox="0 0 64 64" fill="none" xmlns="http://www.w3.org/2000/svg">
<path d="M11.9309 57.5647C26.1524 53.7416 40.8199 51.8304 55.5462 51.8814C57.6258 51.8899 59.1755 49.9317 58.6369 47.9215L57.919 45.2422M5.75043 18.503L6.28619 20.5025C6.42828 21.0328 6.35389 21.5978 6.07939 22.0733C5.80489 22.5487 5.35276 22.8956 4.82247 23.0377L2.82298 23.5735M2.82298 23.5735L2.5551 22.5737C2.1115 20.9182 3.09512 19.2145 4.75069 18.7709L49.739 6.7163M2.82298 23.5735L9.2521 47.5673M49.739 6.7163L50.2748 8.71578C50.5705 9.81949 51.7063 10.4752 52.81 10.1795L54.8095 9.64374M49.739 6.7163L50.7388 6.44842C52.3943 6.00481 54.098 6.98843 54.5416 8.644L61.5065 34.6373C61.9501 36.2928 60.9665 37.9965 59.3109 38.4401L58.3112 38.708M9.2521 47.5673L9.51998 48.567C9.73312 49.3625 10.2535 50.0407 10.9667 50.4524C11.6799 50.8642 12.5274 50.9757 13.3228 50.7626L14.3226 50.4947M9.2521 47.5673L11.2516 47.0315C11.7819 46.8894 12.3469 46.9638 12.8223 47.2383C13.2978 47.5128 13.6447 47.9649 13.7868 48.4952L14.3226 50.4947M58.3112 38.708L57.7754 36.7085C57.6333 36.1782 57.7077 35.6132 57.9822 35.1378C58.2567 34.6623 58.7088 34.3154 59.2391 34.1733L61.2386 33.6375M58.3112 38.708L14.3226 50.4947M40.0287 26.4625C40.5971 28.5836 40.2996 30.8437 39.2016 32.7455C38.1035 34.6473 36.295 36.0351 34.1738 36.6034C32.0527 37.1718 29.7926 36.8743 27.8908 35.7763C25.989 34.6782 24.6012 32.8697 24.0329 30.7485C23.4645 28.6274 23.7621 26.3673 24.8601 24.4655C25.9581 22.5637 27.7666 21.1759 29.8878 20.6076C32.0089 20.0392 34.269 20.3368 36.1708 21.4348C38.0726 22.5328 39.4604 24.3413 40.0287 26.4625ZM48.0267 24.3194L48.048 24.3137L48.0537 24.335L48.0324 24.3408L48.0267 24.3194ZM16.035 32.8916L16.0563 32.8859L16.062 32.9072L16.0407 32.9129L16.035 32.8916Z" stroke="#F55B1E" stroke-width="3" stroke-linecap="round" stroke-linejoin="round"/>
</svg>
