<svg width="24" height="24" viewBox="0 0 24 24" fill="none" xmlns="http://www.w3.org/2000/svg">
<g clip-path="url(#clip0_212_33)">
<path d="M20.7388 4.77451C18.7213 2.75701 15.9343 1.50901 12.8555 1.50901C6.69879 1.50901 1.70679 6.50026 1.70679 12.6578C1.70679 14.7068 2.25954 16.626 3.22329 18.276L3.19479 18.2235L1.61304 24L7.52229 22.4498C9.06054 23.304 10.8958 23.8065 12.8488 23.8065H12.8533C19.01 23.8043 23.9998 18.8123 23.9998 12.6555C23.9998 9.57826 22.7533 6.79276 20.738 4.77526L20.7388 4.77451ZM12.8533 21.9233H12.8495C11.1103 21.9233 9.48204 21.4433 8.09229 20.6085L8.13429 20.6318L7.79604 20.4315L4.28979 21.3518L5.22504 17.9325L5.00454 17.5823C4.11579 16.1858 3.58779 14.484 3.58779 12.6585C3.58779 7.54201 7.73604 3.39376 12.8525 3.39376C17.969 3.39376 22.1173 7.54201 22.1173 12.6585C22.1173 17.775 17.9705 21.9233 12.8533 21.9233ZM17.9353 14.985C17.657 14.8455 16.2875 14.1728 16.0325 14.079C15.7768 13.986 15.5908 13.9403 15.4048 14.2193C15.2203 14.4975 14.6863 15.1245 14.5235 15.3105C14.3615 15.4973 14.198 15.5198 13.9198 15.381C13.0573 15.0315 12.3163 14.5658 11.672 13.992L11.6795 13.9988C11.0803 13.4438 10.5665 12.8085 10.1518 12.108L10.1308 12.069C9.96879 11.7908 10.1135 11.64 10.2523 11.5013C10.3775 11.3768 10.5313 11.1758 10.67 11.0138C10.7795 10.8795 10.8733 10.7258 10.9445 10.5608L10.949 10.548C10.9813 10.4828 11 10.407 11 10.326C11 10.2278 10.9723 10.1363 10.9243 10.0583L10.9258 10.0605C10.8553 9.92101 10.2988 8.55001 10.067 7.99201C9.84054 7.44901 9.61029 7.52326 9.44004 7.51426C9.27804 7.50676 9.09204 7.50526 8.90604 7.50526C8.60979 7.51276 8.34654 7.64626 8.16504 7.85251L8.16429 7.85401C7.56279 8.42476 7.18929 9.22951 7.18929 10.1213C7.18929 10.1408 7.18929 10.161 7.19004 10.1805V10.1775C7.28829 11.2778 7.70079 12.2655 8.33529 13.0703L8.32629 13.059C9.52929 14.8433 11.1328 16.2705 13.0145 17.232L13.085 17.2643C13.496 17.4503 14.0225 17.649 14.561 17.8193L14.6728 17.85C15.0043 17.955 15.386 18.0158 15.782 18.0158C16.0093 18.0158 16.2328 17.9955 16.4488 17.9573L16.4255 17.9603C17.2273 17.793 17.8925 17.3093 18.2983 16.6485L18.305 16.6358C18.4288 16.3613 18.5008 16.041 18.5008 15.7043C18.5008 15.5655 18.4888 15.4298 18.4655 15.2978L18.4678 15.312C18.3988 15.1958 18.2128 15.1268 17.9338 14.9865L17.9353 14.985Z" fill="#353332"/>
</g>
<defs>
<clipPath id="clip0_212_33">
<rect width="24" height="24" fill="white"/>
</clipPath>
</defs>
</svg>
