<svg width="32" height="32" viewBox="0 0 32 32" fill="none" xmlns="http://www.w3.org/2000/svg">
<path d="M22.6669 20L15.3336 27.3333L12.0002 24" stroke="#F55B1E" stroke-width="1.5" stroke-linecap="round" stroke-linejoin="round"/>
<path d="M6.66695 23.6572C5.44414 22.8052 4.44314 21.6728 3.74768 20.3547C3.05223 19.0365 2.68254 17.571 2.66954 16.0807C2.65655 14.5904 3.00063 13.1187 3.673 11.7886C4.34536 10.4586 5.32647 9.30887 6.53423 8.43569C7.742 7.56252 9.14131 6.99126 10.6151 6.76972C12.0889 6.54817 13.5943 6.68278 15.0054 7.16228C16.4165 7.64178 17.6923 8.45223 18.726 9.52583C19.7597 10.5994 20.5212 11.905 20.947 13.3332H23.3336C24.7486 13.3338 26.1178 13.8344 27.1994 14.7466C28.2811 15.6588 29.0055 16.924 29.2448 18.3185C29.4841 19.7131 29.2228 21.1474 28.5071 22.368C27.7915 23.5886 26.6674 24.517 25.3336 24.9892" stroke="#F55B1E" stroke-width="1.5" stroke-linecap="round" stroke-linejoin="round"/>
</svg>
