<svg width="32" height="32" viewBox="0 0 32 32" fill="none" xmlns="http://www.w3.org/2000/svg">
<rect width="32" height="32" rx="9.14286" fill="#180700"/>
<path fill-rule="evenodd" clip-rule="evenodd" d="M21.4384 6.57104C23.1164 6.57104 24.1888 6.81718 24.6557 7.30945C25.1226 7.80171 25.2539 8.78258 25.0496 10.252L23.8966 18.357C23.6923 19.8559 23.291 20.8441 22.6928 21.3216C22.1033 21.7923 20.9876 21.9944 19.3354 22.0002L18.3013 22.0003L17.8011 25.4291H14.2993L16.7324 8.28535L16.449 8.28541C16.1439 8.28541 15.9122 8.49074 15.7908 8.78037L12.4608 20.286H14.2614L14.0202 21.9996L11.9752 22.0003L11.0065 25.4291H7.54239L8.50751 22.0003H6.85718L7.32662 20.286H8.99008L12.1253 9.31994C12.73 7.17184 13.5111 6.58279 15.6864 6.57104H21.4384ZM20.9896 8.21738H20.0696L18.3982 20.0411H19.3182C19.5325 20.0411 19.6968 20.0012 19.8111 19.9216C19.9183 19.847 19.9878 19.6991 20.0196 19.4782L21.5254 8.84717C21.5683 8.60105 21.5433 8.43455 21.4504 8.34768C21.3575 8.26081 21.2039 8.21738 20.9896 8.21738Z" fill="#F55B1E"/>
</svg>
