<svg width="234" height="234" viewBox="0 0 234 234" fill="none" xmlns="http://www.w3.org/2000/svg">
<rect width="234" height="234" fill="white"/>
<g opacity="0.16">
<circle cx="13" cy="13" r="1" fill="black"/>
<circle cx="39" cy="13" r="1" fill="black"/>
<circle cx="65" cy="13" r="1" fill="black"/>
<circle cx="91" cy="13" r="1" fill="black"/>
<circle cx="117" cy="13" r="1" fill="black"/>
<circle cx="143" cy="13" r="1" fill="black"/>
<circle cx="169" cy="13" r="1" fill="black"/>
<circle cx="195" cy="13" r="1" fill="black"/>
<circle cx="221" cy="13" r="1" fill="black"/>
<circle cx="13" cy="39" r="1" fill="black"/>
<circle cx="39" cy="39" r="1" fill="black"/>
<circle cx="65" cy="39" r="1" fill="black"/>
<circle cx="91" cy="39" r="1" fill="black"/>
<circle cx="117" cy="39" r="1" fill="black"/>
<circle cx="143" cy="39" r="1" fill="black"/>
<circle cx="169" cy="39" r="1" fill="black"/>
<circle cx="195" cy="39" r="1" fill="black"/>
<circle cx="221" cy="39" r="1" fill="black"/>
<circle cx="13" cy="65" r="1" fill="black"/>
<circle cx="39" cy="65" r="1" fill="black"/>
<circle cx="65" cy="65" r="1" fill="black"/>
<circle cx="91" cy="65" r="1" fill="black"/>
<circle cx="117" cy="65" r="1" fill="black"/>
<circle cx="143" cy="65" r="1" fill="black"/>
<circle cx="169" cy="65" r="1" fill="black"/>
<circle cx="195" cy="65" r="1" fill="black"/>
<circle cx="221" cy="65" r="1" fill="black"/>
<circle cx="13" cy="91" r="1" fill="black"/>
<circle cx="39" cy="91" r="1" fill="black"/>
<circle cx="65" cy="91" r="1" fill="black"/>
<circle cx="91" cy="91" r="1" fill="black"/>
<circle cx="117" cy="91" r="1" fill="black"/>
<circle cx="143" cy="91" r="1" fill="black"/>
<circle cx="169" cy="91" r="1" fill="black"/>
<circle cx="195" cy="91" r="1" fill="black"/>
<circle cx="221" cy="91" r="1" fill="black"/>
<circle cx="13" cy="117" r="1" fill="black"/>
<circle cx="39" cy="117" r="1" fill="black"/>
<circle cx="65" cy="117" r="1" fill="black"/>
<circle cx="91" cy="117" r="1" fill="black"/>
<circle cx="117" cy="117" r="1" fill="black"/>
<circle cx="143" cy="117" r="1" fill="black"/>
<circle cx="169" cy="117" r="1" fill="black"/>
<circle cx="195" cy="117" r="1" fill="black"/>
<circle cx="221" cy="117" r="1" fill="black"/>
<circle cx="13" cy="143" r="1" fill="black"/>
<circle cx="39" cy="143" r="1" fill="black"/>
<circle cx="65" cy="143" r="1" fill="black"/>
<circle cx="91" cy="143" r="1" fill="black"/>
<circle cx="117" cy="143" r="1" fill="black"/>
<circle cx="143" cy="143" r="1" fill="black"/>
<circle cx="169" cy="143" r="1" fill="black"/>
<circle cx="195" cy="143" r="1" fill="black"/>
<circle cx="221" cy="143" r="1" fill="black"/>
<circle cx="13" cy="169" r="1" fill="black"/>
<circle cx="39" cy="169" r="1" fill="black"/>
<circle cx="65" cy="169" r="1" fill="black"/>
<circle cx="91" cy="169" r="1" fill="black"/>
<circle cx="117" cy="169" r="1" fill="black"/>
<circle cx="143" cy="169" r="1" fill="black"/>
<circle cx="169" cy="169" r="1" fill="black"/>
<circle cx="195" cy="169" r="1" fill="black"/>
<circle cx="221" cy="169" r="1" fill="black"/>
<circle cx="13" cy="195" r="1" fill="black"/>
<circle cx="39" cy="195" r="1" fill="black"/>
<circle cx="65" cy="195" r="1" fill="black"/>
<circle cx="91" cy="195" r="1" fill="black"/>
<circle cx="117" cy="195" r="1" fill="black"/>
<circle cx="143" cy="195" r="1" fill="black"/>
<circle cx="169" cy="195" r="1" fill="black"/>
<circle cx="195" cy="195" r="1" fill="black"/>
<circle cx="221" cy="195" r="1" fill="black"/>
<circle cx="13" cy="221" r="1" fill="black"/>
<circle cx="39" cy="221" r="1" fill="black"/>
<circle cx="65" cy="221" r="1" fill="black"/>
<circle cx="91" cy="221" r="1" fill="black"/>
<circle cx="117" cy="221" r="1" fill="black"/>
<circle cx="143" cy="221" r="1" fill="black"/>
<circle cx="169" cy="221" r="1" fill="black"/>
<circle cx="195" cy="221" r="1" fill="black"/>
<circle cx="221" cy="221" r="1" fill="black"/>
</g>
</svg>
