<svg width="72" height="72" viewBox="0 0 72 72" fill="none" xmlns="http://www.w3.org/2000/svg">
<rect width="72" height="72" rx="20" fill="#1E1C1B"/>
<path fill-rule="evenodd" clip-rule="evenodd" d="M48.2365 14.7847C52.0119 14.7847 54.4248 15.3385 55.4754 16.4461C56.5259 17.5537 56.8214 19.7607 56.3617 23.067L53.7673 41.3032C53.3077 44.6756 52.4049 46.8991 51.0589 47.9736C49.7324 49.0326 47.2222 49.4874 43.5047 49.5003L41.1779 49.5006L40.0525 57.2153H32.1734L37.6479 18.6419L37.0102 18.6421C36.3239 18.6421 35.8025 19.104 35.5293 19.7557L28.0369 45.6433H32.0883L31.5456 49.4989L26.9443 49.5006L24.7647 57.2153H16.9704L19.142 49.5006H15.4287L16.485 45.6433H20.2277L27.282 20.9698C28.6425 16.1365 30.4 14.8112 35.2945 14.7847H48.2365ZM47.2267 18.489H45.1565L41.3959 45.0923H43.4661C43.9483 45.0923 44.318 45.0027 44.5751 44.8235C44.8162 44.6555 44.9726 44.3229 45.0442 43.8257L48.4322 19.906C48.5286 19.3522 48.4724 18.9776 48.2634 18.7822C48.0545 18.5867 47.7089 18.489 47.2267 18.489Z" fill="#F55B1E"/>
</svg>
