<svg width="42" height="44" viewBox="0 0 42 44" fill="none" xmlns="http://www.w3.org/2000/svg">
<path fill-rule="evenodd" clip-rule="evenodd" d="M33.3646 0C37.2041 0 39.658 0.5632 40.7263 1.6896C41.7947 2.816 42.0952 5.0604 41.6278 8.42279L38.9893 26.9685C38.5219 30.3982 37.6038 32.6594 36.2349 33.7522C34.8859 34.8291 32.3331 35.2916 28.5526 35.3048L26.1863 35.3051L25.0417 43.1507H17.0289L22.5963 3.92265L21.9478 3.92279C21.2499 3.92279 20.7196 4.39261 20.4418 5.05536L12.8222 31.3823H16.9423L16.3904 35.3034L11.7111 35.3051L9.49446 43.1507H1.5679L3.77628 35.3051H0L1.07417 31.3823H4.88047L12.0544 6.28999C13.4381 1.37473 15.2254 0.0268657 20.203 0H33.3646ZM32.3377 3.76712H30.2324L26.4079 30.8219H28.5132C29.0036 30.8219 29.3796 30.7308 29.6411 30.5486C29.8863 30.3778 30.0453 30.0396 30.1181 29.5339L33.5637 5.20821C33.6617 4.64502 33.6045 4.26405 33.392 4.06528C33.1795 3.86651 32.8281 3.76712 32.3377 3.76712Z" fill="#180700"/>
</svg>
